<svg width="198" height="158" viewBox="0 0 198 158" fill="none" xmlns="http://www.w3.org/2000/svg">
<path d="M197.624 148.318C198.054 148.664 198.122 149.294 197.776 149.724L192.133 156.735C191.786 157.165 191.157 157.233 190.727 156.887C190.296 156.541 190.228 155.911 190.575 155.481L195.591 149.249L189.359 144.233C188.928 143.887 188.86 143.257 189.207 142.827C189.553 142.397 190.182 142.329 190.613 142.675L197.624 148.318ZM196.997 149.097L197.104 150.091C196.409 150.166 195.716 150.24 195.025 150.311L194.922 149.316L194.82 148.322C195.507 148.251 196.197 148.178 196.889 148.103L196.997 149.097ZM190.817 149.72L190.91 150.716C189.548 150.843 188.196 150.963 186.853 151.075L186.77 150.078L186.687 149.082C188.023 148.97 189.369 148.851 190.724 148.724L190.817 149.72ZM182.78 150.392L182.853 151.389C181.529 151.486 180.215 151.576 178.91 151.658L178.847 150.66L178.784 149.662C180.082 149.58 181.389 149.491 182.707 149.394L182.78 150.392ZM174.814 150.893L174.866 151.892C173.48 151.964 172.105 152.028 170.74 152.084L170.699 151.084L170.659 150.085C172.015 150.03 173.383 149.966 174.762 149.894L174.814 150.893ZM166.649 151.226L166.679 152.226C165.335 152.265 164.003 152.296 162.681 152.319L162.664 151.319L162.646 150.319C163.96 150.296 165.285 150.266 166.62 150.227L166.649 151.226ZM158.742 151.363L158.747 152.363C157.355 152.37 155.974 152.368 154.606 152.358L154.614 151.358L154.622 150.358C155.981 150.368 157.353 150.37 158.737 150.363L158.742 151.363ZM150.528 151.297L150.507 152.297C149.152 152.268 147.81 152.23 146.48 152.183L146.515 151.184L146.55 150.184C147.871 150.231 149.205 150.269 150.55 150.298L150.528 151.297ZM142.573 151.017L142.524 152.015C141.155 151.948 139.798 151.871 138.455 151.784L138.519 150.786L138.584 149.788C139.917 149.874 141.263 149.951 142.623 150.018L142.573 151.017ZM134.43 150.49L134.35 151.487C132.996 151.378 131.654 151.259 130.326 151.131L130.422 150.136L130.519 149.14C131.836 149.268 133.166 149.385 134.51 149.493L134.43 150.49ZM126.495 149.724L126.382 150.718C125.017 150.563 123.667 150.399 122.33 150.224L122.46 149.232L122.59 148.241C123.915 148.414 125.254 148.577 126.607 148.731L126.495 149.724ZM118.41 148.664L118.262 149.653C116.921 149.452 115.595 149.241 114.283 149.02L114.45 148.034L114.616 147.048C115.915 147.267 117.229 147.476 118.558 147.675L118.41 148.664ZM110.579 147.342L110.393 148.325C109.022 148.066 107.666 147.796 106.328 147.515L106.534 146.536L106.739 145.557C108.064 145.836 109.406 146.103 110.764 146.359L110.579 147.342ZM102.574 145.66L102.347 146.634C101.037 146.329 99.7428 146.013 98.4651 145.686L98.7128 144.718L98.9604 143.749C100.224 144.072 101.504 144.384 102.8 144.686L102.574 145.66ZM94.8159 143.674L94.5461 144.637C93.2138 144.264 91.8998 143.879 90.604 143.482L90.8969 142.526L91.1898 141.569C92.4701 141.962 93.7686 142.342 95.0857 142.711L94.8159 143.674ZM87.087 141.308L86.7708 142.256C85.486 141.828 84.2199 141.388 82.9721 140.936L83.3124 139.996L83.6526 139.056C84.8843 139.501 86.1344 139.936 87.4032 140.359L87.087 141.308ZM79.4821 138.552L79.1166 139.483C77.8513 138.986 76.6058 138.477 75.3798 137.956L75.7707 137.036L76.1616 136.115C77.3706 136.629 78.5992 137.131 79.8476 137.621L79.4821 138.552ZM72.1136 135.422L71.6969 136.331C70.4369 135.753 69.1985 135.163 67.9814 134.56L68.4251 133.664L68.8688 132.768C70.0679 133.361 71.2883 133.943 72.5304 134.513L72.1136 135.422ZM64.8643 131.834L64.3938 132.716C63.189 132.074 62.0063 131.419 60.8452 130.753L61.3431 129.885L61.8409 129.018C62.9839 129.674 64.1484 130.319 65.3348 130.952L64.8643 131.834ZM57.8513 127.805L57.3256 128.656C56.1751 127.945 55.0471 127.222 53.9412 126.488L54.4944 125.655L55.0475 124.822C56.1352 125.544 57.2449 126.255 58.3769 126.955L57.8513 127.805ZM51.1472 123.35L50.5661 124.164C49.4522 123.369 48.3623 122.562 47.2959 121.743L47.9046 120.95L48.5133 120.157C49.5616 120.961 50.6331 121.754 51.7283 122.536L51.1472 123.35ZM44.773 118.46L44.1372 119.232C43.072 118.354 42.0319 117.465 41.0163 116.566L41.6793 115.817L42.3424 115.069C43.3401 115.953 44.3621 116.826 45.4089 117.688L44.773 118.46ZM38.7317 113.112L38.0425 113.836C37.0462 112.889 36.0752 111.931 35.1291 110.963L35.8441 110.264L36.5592 109.565C37.4885 110.515 38.4422 111.456 39.421 112.387L38.7317 113.112ZM33.0806 107.333L32.3408 108.006C31.4231 106.997 30.5307 105.978 29.663 104.952L30.4268 104.306L31.1904 103.661C32.0427 104.669 32.9191 105.669 33.8205 106.66L33.0806 107.333ZM27.8708 101.169L27.0842 101.786C26.2461 100.719 25.4331 99.6434 24.6447 98.5615L25.4529 97.9726L26.261 97.3836C27.0356 98.4464 27.8341 99.5028 28.6574 100.552L27.8708 101.169ZM23.1215 94.6497L22.2927 95.2093C21.534 94.0857 20.8003 92.9562 20.0909 91.822L20.9387 91.2917L21.7866 90.7614C22.4838 91.8761 23.2047 92.986 23.9502 94.0901L23.1215 94.6497ZM18.846 87.8115L17.9801 88.3118C17.3004 87.1355 16.6455 85.9553 16.0146 84.7723L16.897 84.3017L17.7793 83.8311C18.3997 84.9944 19.0436 86.1548 19.7118 87.3112L18.846 87.8115ZM15.0508 80.6948L14.1531 81.1354C13.5537 79.9142 12.9787 78.6915 12.4273 77.4684L13.3389 77.0573L14.2505 76.6463C14.7932 77.8499 15.3589 79.0529 15.9485 80.2541L15.0508 80.6948ZM11.735 73.3407L10.8106 73.7222C10.2913 72.4638 9.79595 71.2065 9.32342 69.9515L10.2593 69.5991L11.1951 69.2467C11.6605 70.4826 12.1482 71.7206 12.6594 72.9593L11.735 73.3407ZM8.89145 65.7893L7.94522 66.1128C7.50481 64.8246 7.08762 63.5405 6.69251 62.2618L7.64793 61.9666L8.60336 61.6713C8.99275 62.9315 9.40382 64.1968 9.83768 65.4658L8.89145 65.7893ZM6.50845 58.0778L5.54481 58.345C5.18137 57.0343 4.84036 55.7312 4.52054 54.4374L5.49132 54.1974L6.4621 53.9574C6.77752 55.2335 7.11378 56.5184 7.47209 57.8106L6.50845 58.0778ZM4.57172 50.2406L3.59464 50.4534C3.30564 49.1268 3.03825 47.8121 2.79106 46.5112L3.77348 46.3245L4.75591 46.1378C4.99985 47.4217 5.26369 48.7189 5.5488 50.0277L4.57172 50.2406ZM3.06634 42.311L2.07929 42.4714C1.85953 41.1193 1.66098 39.785 1.48196 38.4709L2.47281 38.3359L3.46366 38.2009C3.64042 39.4985 3.83644 40.8158 4.05339 42.1506L3.06634 42.311ZM1.9786 34.3267L0.984643 34.4365C0.832139 33.0554 0.700641 31.7008 0.587972 30.3758L1.58438 30.2911L2.58078 30.2063C2.69207 31.5151 2.82195 32.853 2.97256 34.2169L1.9786 34.3267ZM1.29473 26.3047L0.29654 26.3649C0.212021 24.964 0.14796 23.6032 0.101376 22.2866L1.10075 22.2512L2.10012 22.2158C2.14614 23.5164 2.20942 24.8606 2.29291 26.2444L1.29473 26.3047ZM1.00799 18.1905L0.00803774 18.2008C-0.00654971 16.7784 -0.00165173 15.422 0.0179809 14.1382L1.01786 14.1535L2.01775 14.1687C1.99837 15.4362 1.99353 16.7755 2.00793 18.1803L1.00799 18.1905ZM1.13295 10.1212L0.133832 10.0791C0.197443 8.568 0.278358 7.20382 0.364673 6.00262L1.3621 6.07429L2.35953 6.14596C2.27457 7.32834 2.1948 8.67276 2.13206 10.1632L1.13295 10.1212ZM1.71267 2.13928L0.718524 2.03126C0.789697 1.37624 0.852047 0.871599 0.896843 0.529134C0.919241 0.357899 0.937254 0.227199 0.949786 0.138507C0.956052 0.0941611 0.96095 0.0603151 0.964341 0.0371555C0.966036 0.0255764 0.967356 0.016667 0.968282 0.0104521C0.968744 0.00734525 0.969108 0.00491168 0.969372 0.00315442C0.969505 0.00227508 0.969611 0.00156552 0.969693 0.00102578C0.969734 0.000755203 0.969768 0.000527791 0.969796 0.00034212C0.96981 0.000249979 0.969823 0.0001676 0.969833 9.63291e-05C0.969839 6.00207e-05 0.969845 1.56234e-05 0.969848 -2.55123e-06C0.969855 -4.58848e-05 0.969861 -8.68085e-05 1.95859 0.149661C2.94731 0.299407 2.94731 0.299372 2.94732 0.29934C2.94732 0.299333 2.94733 0.299303 2.94733 0.299288C2.94733 0.29926 2.94733 0.299241 2.94734 0.299233C2.94734 0.299217 2.94733 0.299244 2.94732 0.299313C2.9473 0.29945 2.94726 0.299756 2.94719 0.300231C2.94704 0.301182 2.9468 0.302807 2.94646 0.305102C2.94577 0.309695 2.9447 0.316973 2.94324 0.326916C2.94033 0.346799 2.93591 0.377337 2.93011 0.418343C2.91852 0.500357 2.90144 0.624244 2.87995 0.788536C2.83697 1.11712 2.77636 1.6073 2.70682 2.2473L1.71267 2.13928Z" fill="#E6E7D3"/>
</svg>
