<svg width="21" height="24" viewBox="0 0 21 24" fill="none" xmlns="http://www.w3.org/2000/svg">
<path d="M10.0947 0C15.6699 0 20.1894 4.51955 20.1895 10.0947C20.1895 14.2468 14.5908 20.4263 11.7324 23.3105C10.8215 24.2297 9.36795 24.2297 8.45703 23.3105C5.59858 20.4263 0 14.2467 0 10.0947C6.37038e-05 4.51959 4.51959 6.32829e-05 10.0947 0ZM10.4219 2.69922C9.08372 2.63821 7.71298 2.94458 6.4668 3.65918C5.22136 4.37337 4.26925 5.39847 3.65332 6.5791L3.79004 6.65332C3.86619 6.69562 3.97418 6.75863 4.10742 6.84277C4.37374 7.01098 4.74325 7.26627 5.16992 7.62207C6.02378 8.33419 7.1088 9.45037 8.05273 11.0742C8.99657 12.6981 9.42708 14.1888 9.62109 15.2793C9.718 15.8243 9.75602 16.2698 9.76953 16.583C9.77628 16.7396 9.77655 16.8635 9.77539 16.9502V17.1055C11.1116 17.1653 12.4803 16.859 13.7246 16.1455C14.9687 15.4321 15.9202 14.4085 16.5361 13.2295L16.4004 13.1514C16.3243 13.1091 16.2171 13.0459 16.084 12.9619C15.8176 12.7936 15.4473 12.5386 15.0205 12.1826C14.1666 11.4705 13.0826 10.3542 12.1387 8.73047C11.195 7.10695 10.7644 5.61677 10.5703 4.52637C10.4733 3.98115 10.4354 3.53496 10.4219 3.22168C10.4151 3.06499 10.4149 2.94115 10.416 2.85449C10.4167 2.81111 10.4209 2.72352 10.4219 2.69922ZM3.26758 7.49902C2.62677 9.40266 2.77048 11.5652 3.84375 13.4434C4.91725 15.3216 6.69977 16.5297 8.65234 16.9209C8.65327 16.8534 8.65317 16.7107 8.64746 16.5752C8.63594 16.3037 8.60316 15.9042 8.5166 15.4092C8.34347 14.4194 7.95611 13.0479 7.09766 11.5459C6.23924 10.044 5.25715 9.01941 4.49512 8.37305C4.11418 8.04995 3.78846 7.82155 3.56152 7.67578C3.44829 7.60305 3.32608 7.53208 3.26758 7.49902ZM11.542 3.23047C11.5535 3.50186 11.5863 3.90079 11.6729 4.39551C11.846 5.38534 12.2334 6.75684 13.0918 8.25879C13.9502 9.76075 14.9323 10.7852 15.6943 11.4316C16.0753 11.7548 16.401 11.9831 16.6279 12.1289C16.7413 12.2017 16.8645 12.2726 16.9229 12.3057C17.5636 10.402 17.419 8.23944 16.3457 6.36133C15.2722 4.48301 13.4897 3.27499 11.5371 2.88379C11.5363 2.95139 11.5363 3.09478 11.542 3.23047Z" fill="#D4DE26"/>
</svg>
