<svg width="18" height="18" viewBox="0 0 18 18" fill="none" xmlns="http://www.w3.org/2000/svg">
<g clip-path="url(#clip0_130_2503)">
<path fill-rule="evenodd" clip-rule="evenodd" d="M9.9 8.14287H12.6V9.85716H9.9V12.4286H8.1V9.85716H5.4V8.14287H8.1V5.57145H9.9V8.14287ZM9 15.8572C5.0301 15.8572 1.80001 12.7809 1.80001 9.00002C1.80001 5.21916 5.0301 2.14287 9 2.14287C12.9699 2.14287 16.2 5.21916 16.2 9.00002C16.2 12.7809 12.9699 15.8572 9 15.8572ZM9 0.428589C4.0293 0.428589 0 4.26602 0 9.00002C0 13.734 4.0293 17.5714 9 17.5714C13.9707 17.5714 18 13.734 18 9.00002C18 4.26602 13.9707 0.428589 9 0.428589Z" fill="#D4DE26"/>
</g>
<defs>
<clipPath id="clip0_130_2503">
<rect width="18" height="18" fill="white"/>
</clipPath>
</defs>
</svg>
