<svg width="45" height="45" viewBox="0 0 45 45" fill="none" xmlns="http://www.w3.org/2000/svg">
<path d="M30 41.25V24.375C30 21.7234 30 20.3976 29.1763 19.5737C28.3524 18.75 27.0266 18.75 24.375 18.75H20.625C17.9734 18.75 16.6475 18.75 15.8238 19.5737C15 20.3976 15 21.7234 15 24.375M15 41.25V31.875" stroke="#D4DE26" stroke-width="2" stroke-linecap="round"/>
<path d="M15 41.25C15 38.5984 15 37.2726 14.1762 36.4487C13.3525 35.625 12.0266 35.625 9.375 35.625C6.72336 35.625 5.39753 35.625 4.57376 36.4487C3.75 37.2726 3.75 38.5984 3.75 41.25" stroke="#D4DE26" stroke-width="2" stroke-linecap="round"/>
<path d="M41.25 41.25V35.625C41.25 32.9734 41.25 31.6476 40.4263 30.8237C39.6024 30 38.2766 30 35.625 30C32.9734 30 31.6476 30 30.8237 30.8237C30 31.6476 30 32.9734 30 35.625V41.25" stroke="#D4DE26" stroke-width="2" stroke-linecap="round"/>
<path d="M20.8986 5.66721C21.6111 4.38908 21.9673 3.75 22.5 3.75C23.0327 3.75 23.3889 4.38908 24.1014 5.66721L24.2857 5.99788C24.4881 6.36109 24.5893 6.5427 24.7472 6.66251C24.9051 6.78234 25.1016 6.82682 25.4947 6.91577L25.8527 6.99677C27.2362 7.30982 27.9281 7.46634 28.0927 7.9956C28.2574 8.52486 27.7856 9.07635 26.8425 10.1793L26.5984 10.4647C26.3304 10.7781 26.1964 10.9348 26.136 11.1287C26.0758 11.3226 26.0961 11.5317 26.1366 11.9499L26.1735 12.3306C26.316 13.8022 26.3874 14.538 25.9566 14.8651C25.5255 15.1922 24.8779 14.894 23.5824 14.2975L23.2474 14.1432C22.8791 13.9737 22.6952 13.889 22.5 13.889C22.3048 13.889 22.1209 13.9737 21.7526 14.1432L21.4176 14.2975C20.1221 14.894 19.4745 15.1922 19.0434 14.8651C18.6126 14.538 18.6839 13.8022 18.8265 12.3306L18.8634 11.9499C18.9039 11.5317 18.9242 11.3226 18.864 11.1287C18.8036 10.9348 18.6696 10.7781 18.4016 10.4647L18.1575 10.1793C17.2143 9.07635 16.7427 8.52486 16.9073 7.9956C17.0719 7.46634 17.7637 7.30982 19.1473 6.99677L19.5052 6.91577C19.8984 6.82682 20.0949 6.78234 20.2528 6.66251C20.4107 6.5427 20.5119 6.36109 20.7142 5.99788L20.8986 5.66721Z" stroke="#D4DE26" stroke-width="2"/>
</svg>
