<svg width="45" height="45" viewBox="0 0 45 45" fill="none" xmlns="http://www.w3.org/2000/svg">
<g clip-path="url(#clip0_12_173)">
<path d="M40.9821 28.9286H39.375V24.9107C39.375 22.7009 37.567 20.8928 35.3571 20.8928H23.3036V16.0714H24.9107C27.1205 16.0714 28.9286 14.2634 28.9286 12.0536V8.83927C28.9286 6.62945 27.1205 4.82141 24.9107 4.82141H20.0893C17.8795 4.82141 16.0714 6.62945 16.0714 8.83927V12.0536C16.0714 14.2634 17.8795 16.0714 20.0893 16.0714H21.6964V20.8928H9.64286C7.43304 20.8928 5.625 22.7009 5.625 24.9107V28.9286H4.01786C1.80804 28.9286 0 30.7366 0 32.9464V36.1607C0 38.3705 1.80804 40.1786 4.01786 40.1786H8.83929C11.0491 40.1786 12.8571 38.3705 12.8571 36.1607V32.9464C12.8571 30.7366 11.0491 28.9286 8.83929 28.9286H7.23214V24.9107C7.23214 23.5848 8.31696 22.5 9.64286 22.5H21.6964V28.9286H20.0893C17.8795 28.9286 16.0714 30.7366 16.0714 32.9464V36.1607C16.0714 38.3705 17.8795 40.1786 20.0893 40.1786H24.9107C27.1205 40.1786 28.9286 38.3705 28.9286 36.1607V32.9464C28.9286 30.7366 27.1205 28.9286 24.9107 28.9286H23.3036V22.5H35.3571C36.683 22.5 37.7679 23.5848 37.7679 24.9107V28.9286H36.1607C33.9509 28.9286 32.1429 30.7366 32.1429 32.9464V36.1607C32.1429 38.3705 33.9509 40.1786 36.1607 40.1786H40.9821C43.192 40.1786 45 38.3705 45 36.1607V32.9464C45 30.7366 43.192 28.9286 40.9821 28.9286ZM8.83929 30.5357C10.1652 30.5357 11.25 31.6205 11.25 32.9464V36.1607C11.25 37.4866 10.1652 38.5714 8.83929 38.5714H4.01786C2.69196 38.5714 1.60714 37.4866 1.60714 36.1607V32.9464C1.60714 31.6205 2.69196 30.5357 4.01786 30.5357H8.83929ZM24.9107 30.5357C26.2366 30.5357 27.3214 31.6205 27.3214 32.9464V36.1607C27.3214 37.4866 26.2366 38.5714 24.9107 38.5714H20.0893C18.7634 38.5714 17.6786 37.4866 17.6786 36.1607V32.9464C17.6786 31.6205 18.7634 30.5357 20.0893 30.5357H24.9107ZM20.0893 14.4643C18.7634 14.4643 17.6786 13.3794 17.6786 12.0536V8.83927C17.6786 7.51338 18.7634 6.42855 20.0893 6.42855H24.9107C26.2366 6.42855 27.3214 7.51338 27.3214 8.83927V12.0536C27.3214 13.3794 26.2366 14.4643 24.9107 14.4643H20.0893ZM43.3929 36.1607C43.3929 37.4866 42.308 38.5714 40.9821 38.5714H36.1607C34.8348 38.5714 33.75 37.4866 33.75 36.1607V32.9464C33.75 31.6205 34.8348 30.5357 36.1607 30.5357H40.9821C42.308 30.5357 43.3929 31.6205 43.3929 32.9464V36.1607Z" fill="#D4DE26"/>
</g>
<defs>
<clipPath id="clip0_12_173">
<rect width="45" height="45" fill="white"/>
</clipPath>
</defs>
</svg>
